<?xml version="1.0" encoding="utf-8"?>
<!-- Generator: Adobe Illustrator 16.0.0, SVG Export Plug-In . SVG Version: 6.00 Build 0)  -->
<!DOCTYPE svg PUBLIC "-//W3C//DTD SVG 1.0//EN" "http://www.w3.org/TR/2001/REC-SVG-20010904/DTD/svg10.dtd">
<svg version="1.0" id="Layer_1" xmlns="http://www.w3.org/2000/svg" xmlns:xlink="http://www.w3.org/1999/xlink" x="0px" y="0px"
	 width="64px" height="64px" viewBox="0 0 64 64" enable-background="new 0 0 64 64" xml:space="preserve">
<g>
	<path fill="#231F20" d="M32,0C14.326,0,0,14.326,0,32s14.326,32,32,32s32-14.326,32-32S49.674,0,32,0z M49.912,28.812
		c-0.877-2.061-2.664-2.844-3.967-3.414c-1.24-0.543-1.625-0.775-1.775-1.27c-0.691-2.238,0.814-3.922,4.248-6.643
		c1.9-1.537,3.523-1.883,5.975-2.246c1.965,2.621,3.492,5.586,4.445,8.807c-0.09,0.064-0.164,0.129-0.258,0.195
		c-1.098,0.787-2.342,1.678-3.385,3.295c-1.117,1.77-1.162,3.752-1.199,5.344c-0.047,2.154-0.189,2.439-0.727,2.641
		c-1.609,0.6-2.838,0.445-3.734-0.455c-0.127-0.137-0.072-0.457,0.252-1.492C50.182,32.32,50.721,30.604,49.912,28.812z
		 M4.055,33.088c1.764,0.211,4.271,0.639,5.066,0.855c0.061,0.016,0.186,0.105,0.332,0.211c0.41,0.297,1.031,0.744,2.01,0.885
		c0.188,0.027,0.416,0.043,0.682,0.043c1.525,0,6.273-0.717,7.93-2.324c0.633-0.611,0.871-1.338,0.967-1.947
		c0.061,0.107,0.131,0.25,0.186,0.357c0.336,0.674,0.898,1.801,2.275,2.352c1.363,0.549,2.857,0.025,3.711-0.385
		c0.209-0.102,0.523-0.254,0.545-0.281c0.51,0.18,0.711,0.414,1.33,1.201l0.205,0.258c0.113,0.143,0.176,0.535,0.236,0.914
		c0.145,0.914,0.414,2.615,2.205,3.459c0.844,0.398,2.104,0.357,3.615,0.189c0.498-0.057,0.994-0.115,1.436-0.162
		c0.527,0.227,1.006,0.766,1.166,1.311c0.043,0.145,0.057,0.27,0.045,0.381c-0.424,0.102-1.188,0.174-1.68,0.219
		c-1.311,0.123-2.547,0.24-3.459,0.857c-1.645,1.111-2.973,2.139-3.867,4.393c-0.447,1.131-0.361,2.104-0.301,2.814
		c0.049,0.549,0.057,0.76-0.035,0.982c-0.598,1.441-1.131,2.004-2.203,2.322c-0.375,0.107-0.686,0.025-1.232-0.111
		c-0.514-0.127-1.154-0.287-1.936-0.316l-0.348-0.016c-1.096-0.045-1.834-0.076-3.012,0.02c-0.6,0.047-1.051,0.123-1.514,0.203
		c-0.297,0.053-0.6,0.105-0.984,0.146c-0.721,0.078-1.377,0.109-1.996,0.109c-1.113,0-2.133-0.1-3.209-0.209
		C7.385,46.99,4.336,40.395,4.055,33.088z M32,60c-5.32,0-10.273-1.51-14.51-4.086c0.129-0.012,0.234-0.006,0.365-0.02
		c0.48-0.051,0.863-0.117,1.238-0.182c0.35-0.061,0.688-0.121,1.145-0.156c1-0.08,1.605-0.049,2.523-0.012l0.359,0.016
		c0.379,0.016,0.729,0.102,1.133,0.203c0.904,0.223,2.156,0.414,3.34,0.061c2.867-0.848,4.047-2.914,4.756-4.623
		c0.477-1.148,0.389-2.141,0.326-2.863c-0.049-0.539-0.057-0.764,0.033-0.99c0.439-1.105,0.955-1.584,2.297-2.5
		c0.258-0.107,1.115-0.188,1.684-0.242c1.773-0.166,3.609-0.338,4.547-1.744c0.771-1.145,0.967-2.551,0.553-3.965
		c-0.494-1.682-1.803-3.16-3.432-3.861c-0.812-0.344-2.006-0.297-3.447-0.137c-0.475,0.053-0.953,0.109-1.359,0.115
		c-0.027-0.131-0.053-0.291-0.072-0.414c-0.121-0.77-0.289-1.824-1.062-2.785L32.23,31.58c-0.746-0.947-1.518-1.93-3.16-2.504
		c-1.342-0.465-2.773,0.057-3.6,0.457c-0.143,0.068-0.336,0.162-0.473,0.217c-0.062-0.105-0.137-0.256-0.191-0.367
		c-0.328-0.656-0.877-1.756-2.184-2.324l-0.189-0.086c-0.551-0.252-1.236-0.562-2.092-0.562c-0.471,0-0.936,0.096-1.35,0.27
		c-1.783,0.713-1.852,2.479-1.877,3.145c-0.004,0.053-0.004,0.107-0.004,0.162c-0.938,0.48-3.652,1.096-5.055,1.102
		c-0.102-0.045-0.18-0.117-0.266-0.178c-0.344-0.248-0.863-0.623-1.625-0.828c-1.043-0.283-3.975-0.783-6.012-1.004
		C5.615,14.988,17.521,4,32,4c7.49,0,14.277,2.959,19.301,7.748c-1.799,0.426-3.537,1.123-5.383,2.615
		c-2.863,2.27-7.189,5.697-5.57,10.945c0.715,2.318,2.609,3.146,3.992,3.754c1.139,0.498,1.66,0.773,1.91,1.357
		c0.186,0.408,0.018,1.012-0.277,1.953c-0.443,1.41-1.113,3.541,0.68,5.467c1.328,1.336,3.008,2.041,4.859,2.041
		c1.004,0,2.066-0.205,3.156-0.613c3.213-1.197,3.281-4.266,3.328-6.297c0.029-1.268,0.055-2.465,0.572-3.281
		c0.338-0.525,0.734-0.932,1.172-1.303C59.895,29.572,60,30.771,60,32C60,47.465,47.465,60,32,60z"/>
	<path fill="#231F20" d="M32.625,8.229c-0.234,0-0.467,0.029-0.676,0.08c-3.482,0.836-3.943,4.043-4.279,6.387
		c-0.096,0.664-0.189,1.348-0.355,2.012c-0.1,0.404-0.301,0.865-0.514,1.354c-0.588,1.346-1.682,3.854,0.545,5.707
		c0.783,0.65,1.688,0.982,2.688,0.982c1.467,0,2.771-0.723,3.982-1.395c3.098-1.711,3.604-4.629,4.051-7.205l0.09-0.512
		c0.322-1.807-0.865-4.002-1.982-5.336C35.383,9.357,34.123,8.229,32.625,8.229z M34.125,15.465
		c-0.422,2.436-0.686,3.639-2.111,4.426c-0.688,0.381-1.543,0.855-1.977,0.859c0.082-0.295,0.285-0.758,0.43-1.09
		c0.258-0.592,0.551-1.264,0.729-1.988c0.199-0.791,0.32-1.609,0.434-2.408c0.285-1.979,0.479-2.668,0.945-2.943
		c0.66,0.51,1.637,2.049,1.645,2.617L34.125,15.465z"/>
</g>
</svg>
